<svg width="18" height="19" viewBox="0 0 18 19" fill="none" xmlns="http://www.w3.org/2000/svg">
<g clip-path="url(#clip0_165_2352)">
<path d="M14.25 1.60889H13.5V0.858887C13.5 0.659974 13.421 0.469209 13.2803 0.328557C13.1397 0.187904 12.9489 0.108887 12.75 0.108887C12.5511 0.108887 12.3603 0.187904 12.2197 0.328557C12.079 0.469209 12 0.659974 12 0.858887V1.60889H6V0.858887C6 0.659974 5.92098 0.469209 5.78033 0.328557C5.63968 0.187904 5.44891 0.108887 5.25 0.108887C5.05109 0.108887 4.86032 0.187904 4.71967 0.328557C4.57902 0.469209 4.5 0.659974 4.5 0.858887V1.60889H3.75C2.7558 1.61008 1.80267 2.00555 1.09966 2.70855C0.396661 3.41156 0.00119089 4.36469 0 5.35889L0 14.3589C0.00119089 15.3531 0.396661 16.3062 1.09966 17.0092C1.80267 17.7122 2.7558 18.1077 3.75 18.1089H14.25C15.2442 18.1077 16.1973 17.7122 16.9003 17.0092C17.6033 16.3062 17.9988 15.3531 18 14.3589V5.35889C17.9988 4.36469 17.6033 3.41156 16.9003 2.70855C16.1973 2.00555 15.2442 1.61008 14.25 1.60889V1.60889ZM1.5 5.35889C1.5 4.76215 1.73705 4.18985 2.15901 3.7679C2.58097 3.34594 3.15326 3.10889 3.75 3.10889H14.25C14.8467 3.10889 15.419 3.34594 15.841 3.7679C16.2629 4.18985 16.5 4.76215 16.5 5.35889V6.10889H1.5V5.35889ZM14.25 16.6089H3.75C3.15326 16.6089 2.58097 16.3718 2.15901 15.9499C1.73705 15.5279 1.5 14.9556 1.5 14.3589V7.60889H16.5V14.3589C16.5 14.9556 16.2629 15.5279 15.841 15.9499C15.419 16.3718 14.8467 16.6089 14.25 16.6089Z" fill="#0B3D91"/>
<path d="M9 12.4839C9.62132 12.4839 10.125 11.9802 10.125 11.3589C10.125 10.7376 9.62132 10.2339 9 10.2339C8.37868 10.2339 7.875 10.7376 7.875 11.3589C7.875 11.9802 8.37868 12.4839 9 12.4839Z" fill="#0B3D91"/>
<path d="M5.25 12.4839C5.87132 12.4839 6.375 11.9802 6.375 11.3589C6.375 10.7376 5.87132 10.2339 5.25 10.2339C4.62868 10.2339 4.125 10.7376 4.125 11.3589C4.125 11.9802 4.62868 12.4839 5.25 12.4839Z" fill="#0B3D91"/>
<path d="M12.75 12.4839C13.3713 12.4839 13.875 11.9802 13.875 11.3589C13.875 10.7376 13.3713 10.2339 12.75 10.2339C12.1287 10.2339 11.625 10.7376 11.625 11.3589C11.625 11.9802 12.1287 12.4839 12.75 12.4839Z" fill="#0B3D91"/>
</g>
<defs>
<clipPath id="clip0_165_2352">
<rect width="18" height="18" fill="white" transform="translate(0 0.108887)"/>
</clipPath>
</defs>
</svg>
